#define _width 40
#define _height 20
static char _bits[] = {
 0x00,0x00,0x48,0x00,0x00,0x00,0x00,0x30,0x00,0x00,0x00,0x00,0x20,0x00,0x00,
 0x00,0x00,0xfc,0x0f,0x00,0x00,0x00,0x07,0x38,0x00,0x00,0xc0,0x00,0x40,0x00,
 0x00,0x6f,0x00,0x80,0x1c,0xc0,0x30,0x00,0x00,0x63,0x40,0x00,0x00,0x00,0x80,
 0x60,0x00,0x00,0x00,0x00,0x30,0x00,0x00,0x00,0x00,0x10,0x00,0x03,0x06,0x00,
 0x1c,0x00,0x01,0x02,0x00,0x04,0x00,0x00,0x00,0x00,0x02,0xf0,0xff,0x7f,0x00,
 0x02,0x1c,0x00,0xc0,0x01,0x01,0xc4,0xff,0x1f,0x01,0x01,0x1c,0x00,0xc0,0x01,
 0x01,0xf0,0xff,0x7f,0x00,0x01,0x00,0x00,0x00,0x00 };
